<svg width="581" height="148" viewBox="0 0 581 148" fill="none" xmlns="http://www.w3.org/2000/svg">
<path d="M100.476 106V46.36H106.356V100.792H140.796V106H100.476ZM148.273 106V62.236H153.985V106H148.273ZM148.273 53.08V44.68H153.985V53.08H148.273ZM184.122 106.588C181.154 106.588 178.41 105.972 175.89 104.74C173.37 103.508 171.186 101.856 169.338 99.784C167.546 97.656 166.146 95.248 165.138 92.56C164.13 89.872 163.626 87.1 163.626 84.244C163.626 81.164 164.102 78.28 165.054 75.592C166.062 72.848 167.462 70.412 169.254 68.284C171.102 66.156 173.258 64.504 175.722 63.328C178.186 62.096 180.93 61.48 183.954 61.48C187.706 61.48 190.954 62.432 193.698 64.336C196.498 66.24 198.85 68.592 200.754 71.392V62.236H205.878V106.168C205.878 110.2 204.898 113.588 202.938 116.332C201.034 119.132 198.43 121.232 195.126 122.632C191.878 124.032 188.322 124.732 184.458 124.732C179.474 124.732 175.442 123.836 172.362 122.044C169.282 120.252 166.762 117.844 164.802 114.82L168.33 112.048C170.066 114.792 172.362 116.836 175.218 118.18C178.13 119.524 181.21 120.196 184.458 120.196C187.314 120.196 189.918 119.664 192.27 118.6C194.678 117.592 196.582 116.052 197.982 113.98C199.438 111.908 200.166 109.304 200.166 106.168V97.516C198.486 100.26 196.19 102.472 193.278 104.152C190.366 105.776 187.314 106.588 184.122 106.588ZM185.718 101.8C187.454 101.8 189.106 101.492 190.674 100.876C192.298 100.26 193.782 99.448 195.126 98.44C196.47 97.376 197.59 96.2 198.486 94.912C199.382 93.624 199.942 92.308 200.166 90.964V77.44C199.326 75.312 198.122 73.436 196.554 71.812C194.986 70.132 193.194 68.844 191.178 67.948C189.218 66.996 187.174 66.52 185.046 66.52C182.582 66.52 180.37 67.052 178.41 68.116C176.506 69.124 174.882 70.496 173.538 72.232C172.25 73.912 171.242 75.816 170.514 77.944C169.786 80.072 169.422 82.2 169.422 84.328C169.422 86.68 169.842 88.92 170.682 91.048C171.522 93.12 172.67 94.996 174.126 96.676C175.638 98.3 177.374 99.56 179.334 100.456C181.35 101.352 183.478 101.8 185.718 101.8ZM255.283 106H249.571V81.556C249.571 76.628 248.703 72.932 246.967 70.468C245.231 67.948 242.739 66.688 239.491 66.688C237.363 66.688 235.235 67.248 233.107 68.368C231.035 69.432 229.187 70.916 227.563 72.82C225.995 74.668 224.875 76.796 224.203 79.204V106H218.491V44.68H224.203V72.148C225.939 68.9 228.347 66.324 231.427 64.42C234.563 62.46 237.895 61.48 241.423 61.48C243.943 61.48 246.071 61.928 247.807 62.824C249.599 63.72 251.027 65.036 252.091 66.772C253.211 68.452 254.023 70.44 254.527 72.736C255.031 74.976 255.283 77.524 255.283 80.38V106ZM288.054 103.9C287.606 104.068 286.906 104.376 285.954 104.824C285.002 105.272 283.854 105.664 282.51 106C281.166 106.336 279.71 106.504 278.142 106.504C276.518 106.504 274.978 106.196 273.522 105.58C272.122 104.964 271.002 104.04 270.162 102.808C269.322 101.52 268.902 99.952 268.902 98.104V66.772H262.854V62.236H268.902V47.452H274.614V62.236H284.694V66.772H274.614V96.508C274.726 98.076 275.286 99.252 276.294 100.036C277.358 100.82 278.562 101.212 279.906 101.212C281.474 101.212 282.902 100.96 284.19 100.456C285.478 99.896 286.262 99.504 286.542 99.28L288.054 103.9ZM309.555 106.84C305.971 106.84 302.639 106.252 299.559 105.076C296.479 103.9 293.819 102.108 291.579 99.7L293.931 95.668C296.395 97.964 298.859 99.644 301.323 100.708C303.843 101.716 306.503 102.22 309.303 102.22C312.719 102.22 315.491 101.548 317.619 100.204C319.747 98.804 320.811 96.816 320.811 94.24C320.811 92.504 320.279 91.188 319.215 90.292C318.207 89.34 316.723 88.584 314.763 88.024C312.859 87.408 310.563 86.764 307.875 86.092C304.851 85.252 302.303 84.384 300.231 83.488C298.215 82.536 296.675 81.36 295.611 79.96C294.603 78.504 294.099 76.628 294.099 74.332C294.099 71.476 294.799 69.124 296.199 67.276C297.655 65.372 299.615 63.944 302.079 62.992C304.599 61.984 307.399 61.48 310.479 61.48C313.839 61.48 316.807 62.012 319.383 63.076C321.959 64.14 324.059 65.624 325.683 67.528L322.911 71.392C321.343 69.6 319.467 68.284 317.283 67.444C315.155 66.548 312.775 66.1 310.143 66.1C308.351 66.1 306.643 66.352 305.019 66.856C303.395 67.304 302.051 68.088 300.987 69.208C299.979 70.272 299.475 71.756 299.475 73.66C299.475 75.228 299.867 76.46 300.651 77.356C301.435 78.196 302.611 78.924 304.179 79.54C305.747 80.1 307.679 80.716 309.975 81.388C313.279 82.284 316.163 83.208 318.627 84.16C321.091 85.056 322.995 86.232 324.339 87.688C325.683 89.144 326.355 91.188 326.355 93.82C326.355 97.908 324.815 101.1 321.735 103.396C318.655 105.692 314.595 106.84 309.555 106.84ZM372.588 106H366.876V81.556C366.876 76.628 366.008 72.932 364.272 70.468C362.536 67.948 360.044 66.688 356.796 66.688C354.668 66.688 352.54 67.248 350.412 68.368C348.34 69.432 346.492 70.916 344.868 72.82C343.3 74.668 342.18 76.796 341.508 79.204V106H335.796V44.68H341.508V72.148C343.244 68.9 345.652 66.324 348.732 64.42C351.868 62.46 355.2 61.48 358.728 61.48C361.248 61.48 363.376 61.928 365.112 62.824C366.904 63.72 368.332 65.036 369.396 66.772C370.516 68.452 371.328 70.44 371.832 72.736C372.336 74.976 372.588 77.524 372.588 80.38V106ZM403.417 106.84C400.281 106.84 397.369 106.252 394.681 105.076C392.049 103.844 389.753 102.192 387.793 100.12C385.889 97.992 384.405 95.584 383.341 92.896C382.277 90.152 381.745 87.268 381.745 84.244C381.745 81.108 382.277 78.196 383.341 75.508C384.405 72.764 385.917 70.356 387.877 68.284C389.837 66.156 392.133 64.504 394.765 63.328C397.453 62.096 400.365 61.48 403.501 61.48C406.637 61.48 409.521 62.096 412.153 63.328C414.785 64.504 417.081 66.156 419.041 68.284C421.001 70.356 422.513 72.764 423.577 75.508C424.641 78.196 425.173 81.108 425.173 84.244C425.173 87.268 424.641 90.152 423.577 92.896C422.513 95.584 421.001 97.992 419.041 100.12C417.137 102.192 414.841 103.844 412.153 105.076C409.521 106.252 406.609 106.84 403.417 106.84ZM387.541 84.328C387.541 87.576 388.241 90.544 389.641 93.232C391.097 95.864 393.029 97.964 395.437 99.532C397.845 101.044 400.505 101.8 403.417 101.8C406.329 101.8 408.989 101.016 411.397 99.448C413.805 97.88 415.737 95.752 417.193 93.064C418.649 90.32 419.377 87.352 419.377 84.16C419.377 80.912 418.649 77.944 417.193 75.256C415.737 72.568 413.805 70.44 411.397 68.872C408.989 67.304 406.329 66.52 403.417 66.52C400.505 66.52 397.845 67.332 395.437 68.956C393.085 70.58 391.181 72.736 389.725 75.424C388.269 78.056 387.541 81.024 387.541 84.328ZM488.353 62.236H493.981L475.165 106H470.209L461.053 84.244L451.981 106H447.025L428.209 62.236H433.753L449.713 100.12L457.777 80.38L450.385 62.32H455.509L461.053 76.516L466.681 62.32H471.721L464.413 80.38L472.477 100.12L488.353 62.236ZM494.671 106V97.768H499.627V106H494.671ZM504.873 121.204C503.025 121.204 501.289 120.952 499.665 120.448C497.985 119.944 496.529 119.104 495.297 117.928L498.069 114.064C498.909 114.848 499.889 115.38 501.009 115.66C502.073 115.94 503.137 116.08 504.201 116.08C505.545 116.08 506.805 115.744 507.981 115.072C509.157 114.4 510.109 113.448 510.837 112.216C511.621 111.04 512.013 109.724 512.013 108.268V62.236H517.725V107.932C517.725 110.508 517.109 112.804 515.877 114.82C514.645 116.836 513.049 118.404 511.089 119.524C509.129 120.644 507.057 121.204 504.873 121.204ZM512.013 53.08V44.68H517.725V53.08H512.013ZM544.656 106.84C541.072 106.84 537.74 106.252 534.66 105.076C531.58 103.9 528.92 102.108 526.68 99.7L529.032 95.668C531.496 97.964 533.96 99.644 536.424 100.708C538.944 101.716 541.604 102.22 544.404 102.22C547.82 102.22 550.592 101.548 552.72 100.204C554.848 98.804 555.912 96.816 555.912 94.24C555.912 92.504 555.38 91.188 554.316 90.292C553.308 89.34 551.824 88.584 549.864 88.024C547.96 87.408 545.664 86.764 542.976 86.092C539.952 85.252 537.404 84.384 535.332 83.488C533.316 82.536 531.776 81.36 530.712 79.96C529.704 78.504 529.2 76.628 529.2 74.332C529.2 71.476 529.9 69.124 531.3 67.276C532.756 65.372 534.716 63.944 537.18 62.992C539.7 61.984 542.5 61.48 545.58 61.48C548.94 61.48 551.908 62.012 554.484 63.076C557.06 64.14 559.16 65.624 560.784 67.528L558.012 71.392C556.444 69.6 554.568 68.284 552.384 67.444C550.256 66.548 547.876 66.1 545.244 66.1C543.452 66.1 541.744 66.352 540.12 66.856C538.496 67.304 537.152 68.088 536.088 69.208C535.08 70.272 534.576 71.756 534.576 73.66C534.576 75.228 534.968 76.46 535.752 77.356C536.536 78.196 537.712 78.924 539.28 79.54C540.848 80.1 542.78 80.716 545.076 81.388C548.38 82.284 551.264 83.208 553.728 84.16C556.192 85.056 558.096 86.232 559.44 87.688C560.784 89.144 561.456 91.188 561.456 93.82C561.456 97.908 559.916 101.1 556.836 103.396C553.756 105.692 549.696 106.84 544.656 106.84Z" fill="#111111"/>
<path d="M33 4C1.64022 60.162 -22.0706 93.9252 33 118V4Z" fill="#2F80ED"/>
<path d="M42 4C73.3598 60.162 97.0706 93.9252 42 118V4Z" fill="#2F80ED"/>
<path d="M43 5.75841C38.7041 -1.36835 36.296 -2.45151 32 5.75841V122H43V5.75841Z" fill="#2F80ED"/>
<path d="M17 109C33.0113 111.692 41.9888 111.553 58 109V143.268C51.1134 146.998 46.3443 148.09 35.9815 147.994C28.7583 147.963 24.6242 147.133 17 143.268V109Z" fill="#BDBDBD"/>
<rect x="17" y="120" width="41" height="2" fill="#E3E3E3"/>
<rect x="17" y="127" width="41" height="2" fill="#E3E3E3"/>
<rect x="17" y="134" width="41" height="2" fill="#E3E3E3"/>
</svg>
